<?xml version="1.0" encoding="iso-8859-1"?>
<!-- Generator: Adobe Illustrator 18.1.1, SVG Export Plug-In . SVG Version: 6.00 Build 0)  -->
<svg xmlns="http://www.w3.org/2000/svg" xmlns:xlink="http://www.w3.org/1999/xlink" version="1.1" id="Capa_1" x="0px" y="0px" viewBox="0 0 612.006 612.006" style="enable-background:new 0 0 612.006 612.006;" xml:space="preserve" width="512px" height="512px">
<g>
	<path d="M598.003,292.135l-46.006-23.74L489.7,92.793c-3.657-10.313-13.416-17.205-24.359-17.205H25.848   C11.573,75.59,0,87.161,0,101.436v330.84c0,14.275,11.573,25.846,25.848,25.846h32.374c6.118,44.169,44.102,78.296,89.927,78.296   c45.823,0,83.805-34.125,89.923-78.296H381.69c6.116,44.169,44.1,78.296,89.925,78.296s83.806-34.125,89.925-78.296h24.619   c14.275,0,25.848-11.573,25.848-25.846V315.103C612,305.433,606.599,296.571,598.003,292.135z M148.146,492.654   c-25.94,0-47.045-21.103-47.045-47.045c0-25.94,21.103-47.043,47.045-47.043c25.938,0,47.041,21.103,47.041,47.043   C195.188,471.551,174.084,492.654,148.146,492.654z M342.045,130.403h83.571l37.047,104.045H342.047V130.403H342.045z    M471.611,492.654c-25.94,0-47.043-21.103-47.043-47.045c0-25.94,21.103-47.043,47.043-47.043c25.94,0,47.043,21.103,47.043,47.043   C518.654,471.551,497.548,492.654,471.611,492.654z" fill="#3b3b3b"/>
</g>
<g>
</g>
<g>
</g>
<g>
</g>
<g>
</g>
<g>
</g>
<g>
</g>
<g>
</g>
<g>
</g>
<g>
</g>
<g>
</g>
<g>
</g>
<g>
</g>
<g>
</g>
<g>
</g>
<g>
</g>
</svg>
